<?xml version="1.0" encoding="UTF-8" standalone="no"?><!DOCTYPE svg PUBLIC "-//W3C//DTD SVG 1.1//EN" "http://www.w3.org/Graphics/SVG/1.1/DTD/svg11.dtd"><svg width="100%" height="100%" viewBox="0 0 64 64" version="1.1" xmlns="http://www.w3.org/2000/svg" xmlns:xlink="http://www.w3.org/1999/xlink" xml:space="preserve" xmlns:serif="http://www.serif.com/" style="fill-rule:evenodd;clip-rule:evenodd;stroke-linejoin:round;stroke-miterlimit:1.41421;"><rect id="canvas_background" x="-1" y="-1" width="582" height="402" style="fill:none;"/><g><path id="Fill-133" d="M49.6,54l-35.2,0c-2.4,0 -4.4,-2 -4.4,-4.4l0,-32.3c0,-2.4 1.6,-4.4 3.7,-4.4l2.2,0l0,2.9l-2.2,0c-0.3,0 -0.7,0.6 -0.7,1.5l0,32.3c0,0.8 0.7,1.5 1.5,1.5l35.2,0c0.8,0 1.5,-0.7 1.5,-1.5l0,-32.3c0,-0.9 -0.5,-1.5 -0.7,-1.5l-2.2,0l0,-2.9l2.2,0c2,0 3.7,2 3.7,4.4l0,32.3c-0.2,2.4 -2.2,4.4 -4.6,4.4" style="fill:#aaa;fill-rule:nonzero;"/><path id="Fill-134" d="M20.3,18.8c-0.8,0 -1.5,-0.7 -1.5,-1.5l0,-5.9c0,-0.8 0.7,-1.5 1.5,-1.5c0.8,0 1.5,0.7 1.5,1.5l0,5.9c-0.1,0.8 -0.7,1.5 -1.5,1.5" style="fill:#aaa;fill-rule:nonzero;"/><path id="Fill-135" d="M43.7,18.8c-0.8,0 -1.5,-0.7 -1.5,-1.5l0,-5.9c0,-0.8 0.7,-1.5 1.5,-1.5c0.8,0 1.5,0.7 1.5,1.5l0,5.9c0,0.8 -0.7,1.5 -1.5,1.5" style="fill:#aaa;fill-rule:nonzero;"/><path id="Fill-136" d="M24.7,12.9l14.6,0l0,3l-14.6,0l0,-3Z" style="fill:#aaa;fill-rule:nonzero;"/><path id="Fill-137" d="M12.9,21.7l38.2,0l0,3l-38.2,0l0,-3Z" style="fill:#aaa;fill-rule:nonzero;"/><path id="Fill-138" d="M45.2,27.6l2.9,0l0,2.9l-2.9,0l0,-2.9Z" style="fill:#aaa;fill-rule:nonzero;"/><path id="Fill-139" d="M39.3,27.6l3,0l0,2.9l-3,0l0,-2.9Z" style="fill:#aaa;fill-rule:nonzero;"/><path id="Fill-140" d="M33.5,27.6l2.9,0l0,2.9l-2.9,0l0,-2.9Z" style="fill:#aaa;fill-rule:nonzero;"/><path id="Fill-141" d="M27.6,27.6l2.9,0l0,2.9l-2.9,0l0,-2.9Z" style="fill:#aaa;fill-rule:nonzero;"/><path id="Fill-142" d="M21.7,27.6l3,0l0,2.9l-3,0l0,-2.9Z" style="fill:#aaa;fill-rule:nonzero;"/><path id="Fill-143" d="M45.2,33.5l2.9,0l0,2.9l-2.9,0l0,-2.9Z" style="fill:#aaa;fill-rule:nonzero;"/><path id="Fill-144" d="M39.3,33.5l3,0l0,2.9l-3,0l0,-2.9Z" style="fill:#aaa;fill-rule:nonzero;"/><path id="Fill-145" d="M33.5,33.5l2.9,0l0,2.9l-2.9,0l0,-2.9Z" style="fill:#aaa;fill-rule:nonzero;"/><path id="Fill-146" d="M27.6,33.5l2.9,0l0,2.9l-2.9,0l0,-2.9Z" style="fill:#aaa;fill-rule:nonzero;"/><path id="Fill-147" d="M21.7,33.5l3,0l0,2.9l-3,0l0,-2.9Z" style="fill:#aaa;fill-rule:nonzero;"/><path id="Fill-148" d="M15.9,33.5l2.9,0l0,2.9l-2.9,0l0,-2.9Z" style="fill:#aaa;fill-rule:nonzero;"/><path id="Fill-149" d="M45.2,39.3l2.9,0l0,3l-2.9,0l0,-3Z" style="fill:#aaa;fill-rule:nonzero;"/><path id="Fill-150" d="M39.3,39.3l3,0l0,3l-3,0l0,-3Z" style="fill:#aaa;fill-rule:nonzero;"/><path id="Fill-151" d="M33.5,39.3l2.9,0l0,3l-2.9,0l0,-3Z" style="fill:#aaa;fill-rule:nonzero;"/><path id="Fill-152" d="M27.6,39.3l2.9,0l0,3l-2.9,0l0,-3Z" style="fill:#aaa;fill-rule:nonzero;"/><path id="Fill-153" d="M21.7,39.3l3,0l0,3l-3,0l0,-3Z" style="fill:#aaa;fill-rule:nonzero;"/><path id="Fill-154" d="M15.9,39.3l2.9,0l0,3l-2.9,0l0,-3Z" style="fill:#aaa;fill-rule:nonzero;"/><path id="Fill-155" d="M39.3,45.2l3,0l0,2.9l-3,0l0,-2.9Z" style="fill:#aaa;fill-rule:nonzero;"/><path id="Fill-156" d="M33.5,45.2l2.9,0l0,2.9l-2.9,0l0,-2.9Z" style="fill:#aaa;fill-rule:nonzero;"/><path id="Fill-157" d="M27.6,45.2l2.9,0l0,2.9l-2.9,0l0,-2.9Z" style="fill:#aaa;fill-rule:nonzero;"/><path id="Fill-158" d="M21.7,45.2l3,0l0,2.9l-3,0l0,-2.9Z" style="fill:#aaa;fill-rule:nonzero;"/><path id="Fill-159" d="M15.9,45.2l2.9,0l0,2.9l-2.9,0l0,-2.9Z" style="fill:#aaa;fill-rule:nonzero;"/></g></svg>