<svg xmlns="http://www.w3.org/2000/svg" viewBox="0 0 390.29361 125.69219"><title>Datový zdroj 3</title><g id="Vrstva_2" data-name="Vrstva 2"><g id="Vrstva_1-2" data-name="Vrstva 1"><path d="M25.61205,91.84388c-2.10351-.141-4.20636-.29331-6.31108-.41306a7.75178,7.75178,0,0,0-1.24475.12436,9.15237,9.15237,0,0,0,.56775.94465c2.41135,3.12391,5.90663,4.14743,9.54745,4.64076,6.023.81612,11.83463-.46294,17.54361-2.25215,3.95608-1.23985,7.87794-2.58859,11.82084-3.871a7.94512,7.94512,0,0,1,1.25583-.20113c-.25466.41088-.41316.97132-.78023,1.20734a36.19389,36.19389,0,0,1-5.53326,3.299c-6.21968,2.56493-12.62835,4.51688-19.41942,4.8201a25.30575,25.30575,0,0,1-10.92271-1.50359A16.94234,16.94234,0,0,1,12.19222,88.219c-.45985-1.27668.34133-.89575.94276-.7997a76.99263,76.99263,0,0,0,7.74619,1.20112c3.62532.20279,7.27189.06687,10.9078-.00416a5.12973,5.12973,0,0,0,1.67185-.68968,11.64456,11.64456,0,0,0-1.57258-.6461c-3.4651-.87954-6.97107-1.614-10.402-2.60869C16.031,83.09011,11.22934,80.32887,8.00919,75.53847a16.401,16.401,0,0,1-3.20668-9.81631,5.31289,5.31289,0,0,1,.93175-2.19082,1.03364,1.03364,0,0,1,.948-.02718c2.577,3.6123,6.52026,4.69338,10.49018,5.718,1.236.319,2.49167.56656,3.74588.80757a3.42264,3.42264,0,0,0,.92683-.077c-.17091-.21992-.33883-.44226-.51319-.65941-2.69065-3.3509-5.77224-6.46683-7.96458-10.1169a50.23215,50.23215,0,0,1-5.19406-11.9828c-1.223-4.29515-1.32681-8.833,1.35589-12.9106.56509-.8589.74514-.957,1.32619.043a98.50631,98.50631,0,0,0,5.60674,9.02305,56.45367,56.45367,0,0,0,11.642,11.16129c3.53873,2.69117,7.07407,5.417,10.81985,7.79886,6.11591,3.889,12.3654,7.57326,18.62984,11.22144,3.73923,2.17758,7.61988,4.11164,11.42575,6.17581,1.43541.77851,2.32975,1.14211,3.93931-.44381,4.68721-4.61837,9.75924-8.85951,14.84141-13.05342,1.13041-.93282,2.89308-1.1955,4.41684-1.526,1.28111-.27791,2.02068.56583,2.24556,1.80651.2238,1.23466-.76593,1.35613-1.55681,1.78468a68.4373,68.4373,0,0,0-7.56184,4.38177c-3.135,2.262-6.28746,4.58459-8.48854,7.8866a4.87594,4.87594,0,0,0-.898,1.425,3.09632,3.09632,0,0,0,.0752,2.11247,2.115,2.115,0,0,0,1.89821.2994,29.14734,29.14734,0,0,0,6.15648-2.51788c7.0802-4.49812,14.033-9.19678,21.037-13.8149a10.91154,10.91154,0,0,1,2.27954-1.35828c.49511-.17152,1.162.15282,1.75169.25437a4.92348,4.92348,0,0,1-.56761,1.38c-2.33409,2.76862-4.8942,5.37693-6.25171,8.8282-.74254,1.88783-1.202,3.92484.03975,5.68092,1.3791,1.95033,3.54524,1.72055,5.60355,1.27862a5.26187,5.26187,0,0,0,1.77318-.70472c2.33068-1.543,4.61827-3.151,6.93141-4.72077.89327-.6062.99623-1.18592.45311-2.217a11.40768,11.40768,0,0,1-.78971-8.75643,8.00945,8.00945,0,0,1,8.94884-5.52366c2.2829.377,4.18859,3.3588,3.45553,5.52461-1.06314,3.141-2.08022,6.326-4.75379,8.57837-1.34776,1.13544-.78275,2.201.29249,2.95276,1.51429,1.05878,3.21113,2.14478,5.14215,1.61394,3.36348-.92462,6.70571-1.97352,9.96547-3.211a30.45628,30.45628,0,0,0,5.7339-3.0236,10.47629,10.47629,0,0,0,3.07065-2.99611,34.06879,34.06879,0,0,1,7.8661-8.23537,14.30411,14.30411,0,0,1,3.51366-1.86325,2.16236,2.16236,0,0,1,1.79334.11291c.55.402.80546.84973,1.46107.15852.16407-.173.90771-.06369,1.12956.16435a1.15017,1.15017,0,0,1,.04183,1.1266,25.50032,25.50032,0,0,1-3.0446,3.39913c-1.97389,1.70469-4.11108,3.21865-6.14158,4.85988-1.73814,1.4049-2.39431,5.29112-1.28154,7.22811.77921,1.35636,3.42122,2.00457,5.59652,1.1011a66.62543,66.62543,0,0,0,8.63226-4.044c5.89478-3.51382,11.652-7.26066,17.4147-10.9906a4.20527,4.20527,0,0,0,1.40879-2.04177c.9707-2.66748,6.062-4.60612,8.52368-3.16544a2.33911,2.33911,0,0,1,.90242,3.42679c-2.09257,2.63189-4.321,5.15558-6.48492,7.73113a9.53068,9.53068,0,0,0-.618.93157,5.22478,5.22478,0,0,0,1.01371-.32553c3.82775-2.14807,7.56479-4.4755,11.48615-6.43463,5.22761-2.61173,10.56467-5.01477,15.9339-7.32325.98062-.4216,2.98515-.40854,3.3925.181.90143,1.30446-.6624,2.17183-1.54643,3.02919-2.75291,2.66988-5.39427,5.39724-6.647,9.17536a3.67273,3.67273,0,0,0,2.84449,4.60286,13.08944,13.08944,0,0,0,8.25323-.999c4.35445-2.07619,8.53365-4.51651,12.83629-6.70592,2.50562-1.275,3.87817-3.61111,5.74809-5.50538a37.2221,37.2221,0,0,1,24.46694-11.09107,12.81373,12.81373,0,0,1,7.425,1.4321c4.20093,2.36973,5.357,6.02854,3.39955,10.11365-1.12027,2.338-2.46662,4.56759-3.70371,6.85a2.80294,2.80294,0,0,0-.16533.53226,2.09288,2.09288,0,0,0,.71739-.06207,76.34334,76.34334,0,0,0,7.5116-3.70939c6.19558-3.87174,12.45744-7.68531,18.31446-12.032a17.84414,17.84414,0,0,1,10.29165-3.91087c5.41257-.20836,6.4615,3.92468,5.20176,7.54379-1.08832,3.12666-3.35269,5.39448-5.43062,7.78569a39.68063,39.68063,0,0,1-3.81983,3.41845,4.20622,4.20622,0,0,0-.363.41423,1.80136,1.80136,0,0,0,.64654.09285c2.40655-.59847,4.98283-.85514,7.174-1.90941,4.86251-2.33955,9.62773-4.92143,14.2525-7.70389,4.95008-2.97814,9.74865-6.21967,14.50938-9.49729,3.8203-2.63018,7.5372-5.41885,11.20641-8.25814,5.01807-3.88307,10.00665-7.80933,14.89071-11.85839a87.9409,87.9409,0,0,0,7.34862-6.9183,108.02668,108.02668,0,0,0,8.69229-9.77943c2.14731-2.87257,3.64076-6.233,5.43753-9.36947.26693-.466.60842-.88919.91539-1.33219.38986.3865,1.0198.71534,1.12885,1.1693.52862,2.20057.99757,4.42316,1.32068,6.66205a24.435,24.435,0,0,1-.1142,3.24723,16.90671,16.90671,0,0,1-2.33575,8.0505,8.381,8.381,0,0,0-.44716.83724A54.5356,54.5356,0,0,1,380.41855,38.388a6.38721,6.38721,0,0,0-.83047,1.04971,6.67181,6.67181,0,0,0-.40981,1.17493c.45937.11444,1.03448.46564,1.3601.30646,3.067-1.49944,6.1756-2.94684,9.08957-4.711,1.29434-.7836,2.13241-2.29731,3.26721-3.38623a1.65334,1.65334,0,0,1,1.27829-.089c.39131,1.16479,1.0572,2.43406.88379,3.55625-.608,3.93449-2.44929,7.32082-4.62268,10.703a23.87744,23.87744,0,0,1-8.594,7.57641c-4.32886,2.51683-9.063,4.33657-13.624,6.45373-.11516.05346-.24678.07122-.36267.12346q-2.02573.913-4.04874,1.832a20.10711,20.10711,0,0,0,4.58362.05521c5.162-1.11353,10.27688-2.446,15.40757-3.70387a8.9837,8.9837,0,0,0,.8904-.3353c.87837-.31819,1.48189-.51934,1.07561.90834a19.40557,19.40557,0,0,1-7.86213,10.5641c-8.15655,5.84337-17.38408,6.28407-26.81756,4.88389-4.003-.59414-7.89279-1.95583-11.82806-2.9914a2.05924,2.05924,0,0,1-.99-.5525c-.56642-.6451-1.04837-1.36433-1.56441-2.05363.734.07619,1.47279.12182,2.2014.2334,5.99178.91757,11.95863,2.0628,17.97929,2.70667A26.38262,26.38262,0,0,0,371.486,70.45508a46.07076,46.07076,0,0,0,6.42742-4.35129c.33707-.24415.386-.88606.56818-1.34408a5.129,5.129,0,0,0-1.3678-.04075,53.268,53.268,0,0,1-18.04421,1.58079c-1.57856-.15838-3.14012-.49413-4.70435-.77695-.19474-.03521-.35763-.24652-.5353-.37622a2.53964,2.53964,0,0,1,.5038-.53677c2.5369-1.45858,5.00179-3.07575,7.64566-4.30793,5.25272-2.448,10.66479-4.55657,15.898-7.04324a28.38832,28.38832,0,0,0,10.32805-8.81232,3.68423,3.68423,0,0,0,.6361-1.17591c.2354-.83613.37325-1.69971.55139-2.552a11.66364,11.66364,0,0,1-1.75661,1.00452c-5.2707,1.926-10.5327,3.88022-15.8428,5.69269-4.34339,1.48251-8.74754,2.78754-13.13,4.15457a8.21937,8.21937,0,0,1-1.2707.19256,6.441,6.441,0,0,1,.87654-.86473c3.9044-2.62058,7.743-5.35072,11.75314-7.79948,6.16541-3.76485,10.504-9.13458,13.82381-15.37406,1.952-3.66874,3.53378-7.53563,5.24352-11.33076a4.188,4.188,0,0,0,.31327-1.68121,6.43913,6.43913,0,0,0-.33587-1.46326c-.3118.3115-.63543.61212-.93361.93615-2.79678,3.03908-5.47833,6.19429-8.41126,9.09543-3.57344,3.53468-7.23137,7.007-11.08212,10.23242-4.78555,4.00844-9.751,7.80945-14.7403,11.56518-4.78616,3.60281-9.70523,7.02884-14.55976,10.54107-2.63218,1.90436-5.28169,3.78663-7.87068,5.74841a61.20417,61.20417,0,0,1-21.71288,10.5752,113.07039,113.07039,0,0,1-15.62262,2.64A11.89044,11.89044,0,0,1,284.94,72.087a3.82563,3.82563,0,0,0-4.63648-.67368A72.03072,72.03072,0,0,1,269.99322,75.977c-2.91428.944-4.45643,3.26407-6.54647,5.04417-4.0657,3.46276-7.9927,7.09457-12.14908,10.44292-4.56086,3.67419-9.16385,7.334-14.02189,10.59236-7.07415,4.74483-14.31723,9.25191-21.63529,13.61371a148.09154,148.09154,0,0,1-13.7128,7.136,49.49061,49.49061,0,0,1-18.21551,4.82189c-3.95718.20523-7.80693-.33617-9.66134-4.581a6.1229,6.1229,0,0,1-.45554-3.78274c1.51918-5.38116,5.22606-9.19986,9.61163-12.39a95.39174,95.39174,0,0,1,21.686-11.54082c6.82674-2.659,13.72491-5.14388,20.64605-7.54866,7.04144-2.44655,14.14995-4.69992,21.22811-7.04086,3.75617-1.24228,7.45368-2.71994,11.28278-3.66581a12.70707,12.70707,0,0,0,7.31232-5.07678,54.65946,54.65946,0,0,0,5.74373-9.13794c.89466-1.9052.90112-4.35382.84037-6.54509-.05832-2.10237-2.11187-2.72784-3.7258-2.986a19.58639,19.58639,0,0,0-11.07706,1.34842c-1.27026.55927-2.10519,2.04756-3.23774,2.99346a44.80614,44.80614,0,0,1-5.01552,3.82758,2.32673,2.32673,0,0,0-1.22482,3.02008c.46476,1.298,1.42074,2.4863,2.91789,2.34855a22.47177,22.47177,0,0,0,6.14438-1.21254c3.42721-1.35186,6.69446-3.10688,10.04654-4.65443a6.24643,6.24643,0,0,1,1.5246-.28484,4.98129,4.98129,0,0,1-.93464,1.118c-5.392,3.50126-10.62493,7.33055-17.15305,8.55774-3.30058.62046-6.48811.64672-9.03342-2.004-.669-.69677-1.06249-.45976-1.76115-.06777-4.9931,2.80142-9.87945,5.86228-15.09571,8.17231a40.88462,40.88462,0,0,1-11.0806,2.75272c-4.55141.6071-6.98754-1.85519-6.94564-6.47425a29.12613,29.12613,0,0,1,.60762-5.51031c.35749-1.75644-.52965-1.31186-1.34-.87966q-3.37353,1.79937-6.67844,3.72686-10.23216,5.98127-20.439,12.00587c-.43773.257-.91677.69034-1.34717.65738a3.90655,3.90655,0,0,1-2.031-.71691c-.2667-.20875-.23314-1.07933-.04656-1.531a12.86207,12.86207,0,0,1,1.48409-2.67324c1.52769-2.086,3.13861-4.11106,4.70816-6.16666a4.91062,4.91062,0,0,0,.36065-.653,3.50763,3.50763,0,0,0-.79989.29711c-2.99809,2.04457-5.85823,4.33074-9.0074,6.10469a106.5688,106.5688,0,0,1-12.65933,6.1985,11.49362,11.49362,0,0,1-10.85539-1.05119,7.12673,7.12673,0,0,1-2.74126-3.42344c-.48164-1.46673-.72821-1.39374-1.97551-.83251-3.76732,1.6951-7.57618,3.3289-11.46711,4.70969-3.983,1.41349-7.72909.44408-10.96742-2.13737-1.25974-1.00421-2.07534-.66757-3.12749.1296a64.61726,64.61726,0,0,1-7.568,5.474,38.68931,38.68931,0,0,1-8.17031,3.04572c-1.98542.55876-3.6113-.40349-5.05417-1.959-2.17234-2.3419-2.54-5.0089-2.10788-7.96413.0496-.33911.04736-.68579.06915-1.029-.32058.18866-.65525.35708-.95965.569-5.8238,4.05424-11.85365,7.72566-18.6138,10.0435-.42283.145-.84924.287-1.28362.38967-3.94259.93157-5.33132-.17246-4.79072-4.1052a2.47859,2.47859,0,0,0-1.5593-2.9774c-7.085-3.77577-14.22039-7.47156-21.15511-11.50974A157.75874,157.75874,0,0,1,32.272,61.45537c-5.04168-3.73548-9.83726-7.81755-14.58589-11.92675A47.931,47.931,0,0,1,12.93988,44.075a8.8923,8.8923,0,0,0-.80394-1.06395,5.18018,5.18018,0,0,0-1.136-.57889c.00417.37648-.02412.75658.01734,1.12891a34.511,34.511,0,0,0,7.35927,17.48014c1.11926,1.45016,2.35376,2.81138,3.47323,4.26139,2.286,2.96091,5.80129,4.07121,8.83744,5.88386C33.142,72.652,35.75739,73.84705,38.28064,75.201c.34377.18447.56615.59516.84473.90111a4.92943,4.92943,0,0,1-1.29213.1123c-3.27008-.58688-6.54678-1.1495-9.79457-1.84507-5.43031-1.163-10.84279-2.40979-16.2574-3.64484-.89659-.20451-1.76586-.52872-2.64776-.79762a25.81285,25.81285,0,0,0,.97549,2.87174,14.30825,14.30825,0,0,0,7.87,7.159c4.358,1.74011,9.00555,2.74007,13.46625,4.24319,3.49334,1.17715,6.895,2.62768,10.32706,3.98278.25176.09939.42013.41.62727.62234a4.5732,4.5732,0,0,1-1.10523.63689C36.14258,90.70363,31.01405,92.14491,25.61205,91.84388Zm163.66764,32.07333a16.95577,16.95577,0,0,0,3.03437-.36981,84.6435,84.6435,0,0,0,10.531-3.38624A166.39758,166.39758,0,0,0,217.77794,112.57a120.45987,120.45987,0,0,0,10.91843-7.31219c5.12808-3.72583,10.18006-7.56061,15.17858-11.45907,2.79417-2.17922,5.48636-4.50356,8.0887-6.9094,1.76073-1.6278,3.29973-3.49824,4.901-5.29308a4.41511,4.41511,0,0,0,.54026-1.17883,6.87825,6.87825,0,0,0-1.401.13637c-6.88568,2.1203-13.78079,4.2121-20.64008,6.41528-6.92265,2.22353-13.91286,4.29337-20.68119,6.92512-7.11792,2.76769-14.09439,5.94324-20.96979,9.27651-5.34742,2.59247-10.15,6.03662-13.53326,11.13991a5.54627,5.54627,0,0,0,.96718,7.34946C183.47151,123.50959,186.22788,123.89683,189.27969,123.91721ZM293.37612,69.61507a17.05422,17.05422,0,0,0,10.81646-4.9436c2.27748-2.14736,4.66815-4.47209,4.794-7.94a3.97893,3.97893,0,0,0-1.12819-2.56322c-.83707-.87268-1.70145-.15081-2.50379.46065q-4.31953,3.2919-8.70466,6.49754c-2.56232,1.87989-5.13754,3.74356-7.74527,5.55953-1.02916.7167-.98389,1.32027.11369,1.70949C290.43673,68.89845,291.92051,69.21706,293.37612,69.61507Zm-167.216-3.33676c.02093-1.07526-.97834-1.97331-2.98781-1.68751-2.35174.33449-3.44185,1.19089-3.79158,3.599a15.10668,15.10668,0,0,0,.18508,4.70667c.42436,2.41068.84995,2.601,2.48289.95955C123.8897,72.00552,126.14488,70.29881,126.16017,66.27831Z" transform="translate(-4.79187 -1.97262)"/><path d="M167.75248,50.08827c.83748.08942,1.46907.15573,2.1004.22448a2.71307,2.71307,0,0,1,2.59694,2.59989,2.79946,2.79946,0,0,1-2.07121,3.25486,24.726,24.726,0,0,1-5.61757.84416,2.893,2.893,0,0,1-3.2111-2.624,3.43863,3.43863,0,0,1,2.626-3.723C165.4035,50.35736,166.68217,50.254,167.75248,50.08827Z" transform="translate(-4.79187 -1.97262)"/></g></g></svg>