<?xml version="1.0" encoding="UTF-8" standalone="no"?><!DOCTYPE svg PUBLIC "-//W3C//DTD SVG 1.1//EN" "http://www.w3.org/Graphics/SVG/1.1/DTD/svg11.dtd"><svg width="100%" height="100%" viewBox="0 0 1627 524" version="1.1" xmlns="http://www.w3.org/2000/svg" xmlns:xlink="http://www.w3.org/1999/xlink" xml:space="preserve" xmlns:serif="http://www.serif.com/" style="fill-rule:evenodd;clip-rule:evenodd;stroke-linejoin:round;stroke-miterlimit:1.41421;"><g id="wings-logo"><path d="M86.751,374.464c-8.765,-0.588 -17.527,-1.223 -26.296,-1.721c-1.74,0.032 -3.475,0.206 -5.187,0.518c0.709,1.358 1.499,2.672 2.366,3.936c10.047,13.016 24.611,17.281 39.781,19.336c25.096,3.401 49.311,-1.929 73.098,-9.384c16.484,-5.166 32.825,-10.786 49.254,-16.129c1.719,-0.419 3.468,-0.699 5.232,-0.838c-1.061,1.712 -1.721,4.047 -3.251,5.031c-7.261,5.258 -14.977,9.858 -23.055,13.745c-25.915,10.688 -52.618,18.821 -80.914,20.084c-15.446,1.282 -30.986,-0.857 -45.511,-6.265c-19.57,-7.584 -34.772,-23.514 -41.433,-43.417c-1.916,-5.32 1.422,-3.732 3.928,-3.332c10.667,2.215 21.439,3.885 32.276,5.005c15.105,0.844 30.299,0.278 45.449,-0.018c2.474,-0.538 4.832,-1.511 6.966,-2.873c-2.116,-1.056 -4.306,-1.956 -6.552,-2.693c-14.438,-3.664 -29.047,-6.725 -43.342,-10.869c-22.73,-6.59 -42.737,-18.096 -56.154,-38.056c-8.741,-11.837 -13.428,-26.187 -13.362,-40.901c0.587,-3.297 1.915,-6.418 3.883,-9.128c1.219,-0.675 2.693,-0.717 3.95,-0.114c10.737,15.052 27.167,19.556 43.709,23.825c5.15,1.33 10.382,2.361 15.608,3.365c1.295,0.07 2.595,-0.038 3.861,-0.321c-0.712,-0.916 -1.411,-1.842 -2.138,-2.747c-11.211,-13.962 -24.051,-26.945 -33.186,-42.154c-9.356,-15.63 -16.631,-32.415 -21.642,-49.928c-5.095,-17.897 -5.528,-36.804 5.65,-53.794c2.354,-3.579 3.105,-3.988 5.526,0.179c7.105,12.943 14.903,25.493 23.361,37.596c13.86,17.743 30.197,33.405 48.508,46.505c14.745,11.213 29.476,22.571 45.083,32.496c25.483,16.204 51.523,31.555 77.625,46.756c15.58,9.073 31.749,17.131 47.607,25.732c5.981,3.244 9.707,4.759 16.414,-1.849c19.53,-19.243 40.663,-36.915 61.839,-54.389c4.71,-3.887 12.054,-4.982 18.403,-6.359c5.338,-1.158 8.42,2.358 9.357,7.527c0.932,5.145 -3.192,5.651 -6.487,7.437c-10.881,5.408 -21.405,11.506 -31.508,18.257c-13.062,9.425 -26.197,19.102 -35.368,32.861c-1.583,1.747 -2.849,3.756 -3.742,5.937c-0.931,2.879 -0.82,5.996 0.313,8.802c2.283,1.658 5.228,2.122 7.909,1.248c8.923,-2.507 17.53,-6.027 25.652,-10.491c29.501,-18.743 58.471,-38.32 87.655,-57.563c2.924,-2.265 6.113,-4.166 9.498,-5.659c2.063,-0.715 4.841,0.637 7.298,1.06c-0.491,2.026 -1.289,3.964 -2.365,5.75c-9.725,11.536 -20.392,22.404 -26.048,36.784c-3.094,7.866 -5.009,16.353 0.165,23.671c5.746,8.126 14.772,7.168 23.348,5.327c2.621,-0.52 5.125,-1.515 7.388,-2.936c9.712,-6.429 19.243,-13.129 28.881,-19.67c3.722,-2.526 4.151,-4.941 1.888,-9.238c-5.925,-11.229 -7.111,-24.377 -3.29,-36.485c4.924,-15.827 20.931,-25.707 37.287,-23.015c9.512,1.571 17.452,13.995 14.398,23.019c-4.43,13.088 -8.668,26.359 -19.808,35.743c-5.615,4.731 -3.261,9.171 1.219,12.304c6.31,4.411 13.38,8.936 21.426,6.724c14.014,-3.852 27.94,-8.223 41.522,-13.379c8.39,-3.337 16.399,-7.561 23.892,-12.598c5.08,-3.234 9.436,-7.485 12.794,-12.484c8.922,-13.196 20.003,-24.796 32.775,-34.314c4.495,-3.257 9.423,-5.87 14.641,-7.764c2.439,-0.934 5.169,-0.762 7.472,0.471c2.292,1.675 3.356,3.54 6.088,0.66c0.683,-0.72 3.782,-0.265 4.706,0.685c0.873,1.426 0.939,3.208 0.175,4.694c-3.797,5.091 -8.043,9.831 -12.686,14.163c-8.225,7.103 -17.13,13.411 -25.59,20.25c-7.242,5.854 -9.976,22.046 -5.34,30.117c3.247,5.652 14.255,8.352 23.319,4.588c12.376,-4.751 24.396,-10.382 35.968,-16.85c24.561,-14.641 48.55,-30.253 72.561,-45.794c2.767,-2.181 4.813,-5.147 5.87,-8.508c4.044,-11.114 25.258,-19.192 35.515,-13.189c3.344,1.631 5.473,5.04 5.473,8.76c0,1.97 -0.597,3.894 -1.713,5.518c-8.719,10.967 -18.004,21.482 -27.02,32.213c-0.934,1.243 -1.794,2.539 -2.575,3.882c1.45,-0.307 2.865,-0.762 4.224,-1.356c15.949,-8.951 31.52,-18.648 47.859,-26.811c21.781,-10.883 44.019,-20.895 66.391,-30.514c4.086,-1.757 12.438,-1.702 14.135,0.754c3.756,5.436 -2.76,9.05 -6.443,12.622c-11.471,11.124 -22.476,22.488 -27.696,38.231c-0.38,1.35 -0.573,2.746 -0.573,4.148c0,7.313 5.242,13.655 12.425,15.03c11.608,2.386 23.684,0.924 34.388,-4.162c18.144,-8.651 35.557,-18.819 53.485,-27.942c10.44,-5.312 16.159,-15.046 23.95,-22.939c27.037,-27.549 63.408,-44.036 101.946,-46.213c10.676,-1.168 21.461,0.912 30.937,5.967c17.504,9.874 22.321,25.119 14.165,42.141c-4.668,9.741 -10.277,19.031 -15.432,28.541c-0.303,0.715 -0.533,1.458 -0.689,2.218c1.004,0.087 2.015,0 2.989,-0.259c10.708,-4.575 21.157,-9.734 31.299,-15.455c25.815,-16.133 51.906,-32.022 76.31,-50.134c12.217,-9.814 27.23,-15.519 42.882,-16.295c22.552,-0.868 26.923,16.353 21.674,31.433c-4.535,13.027 -13.97,22.477 -22.628,32.44c-4.993,5.086 -10.309,9.844 -15.916,14.243c-0.541,0.542 -1.046,1.119 -1.512,1.726c0.867,0.292 1.78,0.424 2.694,0.387c10.027,-2.493 20.761,-3.563 29.891,-7.956c20.261,-9.748 40.116,-20.506 59.386,-32.099c20.625,-12.409 40.619,-25.915 60.455,-39.572c15.918,-10.959 31.405,-22.579 46.694,-34.409c20.908,-16.18 41.694,-32.539 62.044,-49.41c10.75,-9.015 20.974,-18.639 30.62,-28.826c12.885,-12.839 24.979,-26.446 36.218,-40.748c8.947,-11.969 15.169,-25.971 22.656,-39.039c1.112,-1.942 2.535,-3.705 3.814,-5.551c1.625,1.61 4.249,2.98 4.704,4.872c2.202,9.169 4.156,18.43 5.502,27.758c0.142,4.516 -0.017,9.036 -0.475,13.531c-0.377,11.82 -3.725,23.357 -9.733,33.543c-0.686,1.127 -1.308,2.292 -1.863,3.489c-10.022,25.21 -24.479,48.423 -42.684,68.538c-1.303,1.332 -2.463,2.798 -3.46,4.374c-0.721,1.575 -1.292,3.214 -1.708,4.895c1.914,0.477 4.311,1.94 5.667,1.277c12.78,-6.248 25.732,-12.279 37.874,-19.629c5.393,-3.265 8.885,-9.572 13.613,-14.109c1.653,-0.835 3.574,-0.968 5.326,-0.371c1.631,4.853 4.405,10.142 3.683,14.817c-2.534,16.394 -10.206,30.504 -19.261,44.596c-9.197,13.272 -21.488,24.108 -35.809,31.569c-18.037,10.486 -37.762,18.069 -56.766,26.89c-0.48,0.223 -1.029,0.297 -1.512,0.515c-5.627,2.536 -11.25,5.08 -16.869,7.633c6.336,0.804 12.744,0.882 19.098,0.23c21.508,-4.64 42.82,-10.192 64.198,-15.433c1.261,-0.4 2.499,-0.866 3.71,-1.397c3.66,-1.326 6.175,-2.164 4.482,3.785c-5.454,18.038 -17.046,33.614 -32.759,44.017c-33.986,24.347 -72.434,26.184 -111.74,20.349c-16.679,-2.475 -32.886,-8.149 -49.283,-12.464c-1.563,-0.366 -2.993,-1.164 -4.125,-2.302c-2.36,-2.688 -4.369,-5.684 -6.519,-8.557c3.059,0.318 6.137,0.508 9.173,0.973c24.966,3.823 49.827,8.595 74.913,11.278c20.757,2.751 41.874,-0.484 60.855,-9.323c9.421,-5.28 18.38,-11.345 26.781,-18.131c1.405,-1.017 1.608,-3.692 2.368,-5.6c-1.884,-0.311 -3.801,-0.368 -5.7,-0.17c-24.501,6.472 -49.931,8.699 -75.184,6.587c-6.577,-0.66 -13.084,-2.059 -19.601,-3.238c-0.812,-0.146 -1.49,-1.027 -2.231,-1.567c0.588,-0.844 1.295,-1.597 2.099,-2.237c10.571,-6.077 20.841,-12.815 31.857,-17.949c21.887,-10.2 44.437,-18.986 66.242,-29.347c17.102,-8.578 31.871,-21.179 43.034,-36.718c1.174,-1.458 2.073,-3.119 2.65,-4.9c0.981,-3.484 1.555,-7.082 2.297,-10.633c-2.313,1.604 -4.762,3.005 -7.319,4.185c-21.961,8.025 -43.886,16.168 -66.011,23.72c-18.098,6.177 -36.448,11.615 -54.709,17.311c-1.741,0.405 -3.511,0.673 -5.294,0.802c1.099,-1.315 2.322,-2.522 3.652,-3.603c16.268,-10.919 32.262,-22.295 48.971,-32.498c25.69,-15.687 43.767,-38.061 57.6,-64.059c8.133,-15.286 14.724,-31.398 21.848,-47.211c0.912,-2.22 1.356,-4.605 1.305,-7.005c-0.227,-2.08 -0.697,-4.126 -1.4,-6.097c-1.299,1.298 -2.647,2.55 -3.89,3.901c-11.653,12.662 -22.826,25.809 -35.047,37.897c-14.889,14.728 -30.13,29.196 -46.175,42.635c-19.94,16.702 -40.629,32.54 -61.418,48.189c-19.942,15.011 -40.438,29.286 -60.666,43.921c-10.967,7.934 -22.007,15.777 -32.794,23.951c-26.93,20.551 -57.687,35.531 -90.47,44.064c-21.415,5.184 -43.166,8.86 -65.095,11c-13.654,2.023 -27.551,-1.75 -38.308,-10.401c-5.03,-5.214 -13.013,-6.373 -19.319,-2.807c-13.801,7.451 -28.165,13.809 -42.959,19.016c-12.143,3.933 -18.569,13.6 -27.277,21.017c-16.941,14.428 -33.303,29.561 -50.621,43.512c-19.004,15.309 -38.183,30.558 -58.425,44.135c-29.476,19.77 -59.655,38.55 -90.147,56.724c-18.515,10.899 -37.587,20.823 -57.137,29.733c-23.778,11.496 -49.546,18.317 -75.898,20.091c-16.488,0.855 -32.529,-1.4 -40.255,-19.087c-2.293,-4.918 -2.958,-10.441 -1.898,-15.762c6.33,-22.421 21.775,-38.332 40.048,-51.625c27.921,-19.856 58.292,-36.019 90.358,-48.086c28.445,-11.08 57.188,-21.433 86.026,-31.453c29.339,-10.194 58.958,-19.583 88.45,-29.337c15.651,-5.176 31.057,-11.333 47.012,-15.274c12.371,-3.146 23.196,-10.662 30.468,-21.153c9.214,-11.871 17.23,-24.625 23.932,-38.075c3.728,-7.939 3.755,-18.141 3.501,-27.271c-0.243,-8.76 -8.799,-11.366 -15.524,-12.442c-15.602,-2.642 -31.641,-0.689 -46.154,5.618c-5.293,2.331 -8.772,8.532 -13.491,12.473c-6.582,5.801 -13.566,11.13 -20.898,15.948c-4.814,2.091 -7.101,7.731 -5.103,12.584c1.936,5.408 5.92,10.36 12.158,9.786c8.728,-0.481 17.345,-2.182 25.601,-5.053c14.28,-5.632 27.894,-12.945 41.861,-19.393c2.06,-0.658 4.194,-1.057 6.352,-1.187c-1.062,1.735 -2.375,3.305 -3.894,4.658c-22.467,14.589 -44.27,30.544 -71.471,35.658c-13.752,2.585 -27.034,2.694 -37.639,-8.35c-2.788,-2.904 -4.427,-1.916 -7.338,-0.283c-20.805,11.673 -41.165,24.426 -62.899,34.052c-14.778,5.963 -30.319,9.824 -46.169,11.469c-18.965,2.53 -29.115,-7.73 -28.94,-26.976c0.112,-7.716 0.959,-15.404 2.531,-22.959c1.49,-7.319 -2.207,-5.467 -5.583,-3.666c-9.371,4.999 -18.647,10.175 -27.827,15.529c-28.423,16.615 -56.81,33.289 -85.162,50.024c-1.824,1.071 -3.82,2.877 -5.614,2.739c-3.044,-0.183 -5.977,-1.218 -8.462,-2.987c-1.111,-0.869 -0.972,-4.497 -0.194,-6.379c1.611,-3.945 3.687,-7.685 6.184,-11.138c6.365,-8.692 13.077,-17.13 19.617,-25.695c0.569,-0.867 1.071,-1.777 1.503,-2.721c-1.158,0.276 -2.277,0.692 -3.333,1.238c-12.492,8.519 -24.41,18.045 -37.531,25.437c-16.993,9.763 -34.614,18.391 -52.747,25.827c-14.84,6.235 -31.864,4.586 -45.231,-4.38c-5.211,-3.436 -9.209,-8.428 -11.422,-14.265c-2.007,-6.111 -3.034,-5.807 -8.231,-3.468c-15.697,7.062 -31.568,13.87 -47.78,19.623c-16.596,5.89 -32.204,1.851 -45.697,-8.905c-5.249,-4.185 -8.648,-2.782 -13.032,0.54c-9.947,8.353 -20.486,15.976 -31.533,22.808c-10.833,5.499 -22.253,9.757 -34.043,12.69c-8.273,2.329 -15.047,-1.681 -21.059,-8.162c-9.051,-9.758 -10.583,-20.871 -8.783,-33.184c0.207,-1.413 0.197,-2.857 0.288,-4.288c-1.335,0.787 -2.73,1.488 -3.998,2.371c-24.266,16.893 -49.39,32.191 -77.558,41.848c-1.762,0.604 -3.538,1.196 -5.348,1.624c-16.428,3.881 -22.214,-0.719 -19.962,-17.105c1.39,-5.169 -1.457,-10.604 -6.497,-12.406c-29.52,-15.732 -59.251,-31.131 -88.146,-47.957c-20.863,-12.144 -41.042,-25.428 -60.444,-39.791c-21.007,-15.565 -40.989,-32.573 -60.775,-49.695c-7.155,-7.066 -13.765,-14.662 -19.776,-22.723c-1.004,-1.56 -2.124,-3.042 -3.35,-4.434c-1.472,-0.995 -3.062,-1.806 -4.733,-2.412c0.017,1.569 -0.101,3.153 0.072,4.704c3.218,26.663 13.843,51.898 30.664,72.834c4.663,6.042 9.807,11.714 14.472,17.756c9.525,12.337 24.172,16.963 36.822,24.516c10.229,6.106 21.126,11.086 31.64,16.727c1.432,0.769 2.359,2.48 3.519,3.755c-1.766,0.392 -3.576,0.55 -5.384,0.468c-13.625,-2.446 -27.278,-4.79 -40.81,-7.688c-22.627,-4.846 -45.179,-10.041 -67.739,-15.187c-3.736,-0.852 -7.358,-2.203 -11.033,-3.323c1.119,4.064 2.477,8.06 4.065,11.965c6.688,13.784 18.438,24.473 32.791,29.83c18.159,7.25 37.524,11.416 56.11,17.679c14.555,4.905 28.729,10.949 43.029,16.595c1.049,0.415 1.751,1.709 2.614,2.593c-1.404,1.096 -2.954,1.989 -4.605,2.654c-21.466,5.254 -42.835,11.259 -65.343,10.005Zm681.948,133.638c4.252,-0.131 8.484,-0.647 12.643,-1.54c14.919,-3.742 29.577,-8.455 43.88,-14.11c21.258,-9.492 42.024,-20.048 62.22,-31.63c15.708,-9.32 30.895,-19.491 45.493,-30.467c21.367,-15.524 42.417,-31.503 63.245,-47.746c11.642,-9.08 22.859,-18.765 33.702,-28.789c7.337,-6.783 13.749,-14.576 20.421,-22.055c0.988,-1.517 1.747,-3.173 2.251,-4.912c-1.96,-0.01 -3.916,0.18 -5.837,0.569c-28.69,8.834 -57.42,17.55 -86,26.73c-28.845,9.265 -57.971,17.889 -86.172,28.855c-29.658,11.532 -58.727,24.763 -87.374,38.652c-22.281,10.802 -42.292,25.152 -56.389,46.416c-6.644,9.69 -4.894,22.982 4.03,30.623c9.687,7.706 21.171,9.32 33.887,9.404Zm433.735,-226.258c17.004,-1.236 33.007,-8.55 45.069,-20.599c9.489,-8.947 19.451,-18.634 19.975,-33.083c-0.221,-4.011 -1.892,-7.808 -4.701,-10.68c-3.488,-3.636 -7.089,-0.629 -10.432,1.919c-11.999,9.144 -24.089,18.169 -36.27,27.073c-10.676,7.833 -21.406,15.598 -32.272,23.165c-4.288,2.986 -4.099,5.501 0.474,7.123c5.91,2.096 12.092,3.423 18.157,5.082Zm-696.733,-13.904c0.087,-4.48 -4.076,-8.222 -12.449,-7.031c-9.799,1.394 -14.341,4.962 -15.798,14.996c-0.77,6.537 -0.51,13.155 0.771,19.611c1.768,10.045 3.541,10.838 10.345,3.998c7.671,-7.71 17.068,-14.822 17.131,-31.574l0,0Z" style="fill:#fff;fill-rule:nonzero;"/><path d="M679.003,200.482c3.489,0.372 6.121,0.649 8.751,0.935c5.844,0.246 10.582,4.989 10.821,10.833c1.187,6.062 -2.636,12.07 -8.63,13.562c-7.641,2.068 -15.495,3.248 -23.407,3.517c-0.455,0.052 -0.912,0.079 -1.37,0.079c-6.221,0 -11.471,-4.815 -12.009,-11.012c-0.789,-7.158 3.934,-13.854 10.941,-15.512c5.115,-1.281 10.443,-1.712 14.903,-2.402Z" style="fill:#fff;fill-rule:nonzero;"/></g></svg>