<?xml version="1.0" encoding="UTF-8" standalone="no"?><!DOCTYPE svg PUBLIC "-//W3C//DTD SVG 1.1//EN" "http://www.w3.org/Graphics/SVG/1.1/DTD/svg11.dtd"><svg width="100%" height="100%" viewBox="0 0 6564 1850" version="1.1" xmlns="http://www.w3.org/2000/svg" xmlns:xlink="http://www.w3.org/1999/xlink" xml:space="preserve" xmlns:serif="http://www.serif.com/" style="fill-rule:evenodd;clip-rule:evenodd;stroke-linejoin:round;stroke-miterlimit:2;"><g><path d="M317.032,1061.41c-34.976,-4.891 -69.928,-9.97 -104.947,-14.501c-6.986,-0.375 -13.994,-0.179 -20.949,0.578c2.45,5.65 5.239,11.147 8.35,16.467c36.526,55.096 93.693,76.408 153.93,89.033c99.65,20.891 198.29,6.517 295.829,-16.502c67.592,-15.951 134.743,-33.764 202.166,-50.44c7.014,-1.184 14.108,-1.801 21.222,-1.849c-4.749,6.559 -8.071,15.731 -14.49,19.235c-30.636,18.985 -62.906,35.201 -96.421,48.453c-107.007,35.367 -216.434,60.262 -330.264,57.149c-62.307,0.676 -124.003,-12.393 -180.684,-38.276c-76.282,-36.068 -132.637,-104.339 -153.595,-186.074c-6.145,-21.886 6.781,-14.554 16.714,-12.226c42.134,11.965 84.846,21.775 127.978,29.398c60.326,7.751 121.416,9.872 182.252,13.064c10.076,-1.442 19.812,-4.662 28.763,-9.507c-8.18,-4.846 -16.701,-9.088 -25.494,-12.692c-56.837,-18.866 -114.533,-35.362 -170.657,-56.111c-89.241,-32.995 -166.141,-84.916 -214.174,-168.831c-31.629,-49.992 -46.276,-108.889 -41.759,-167.872c3.307,-13.051 9.534,-25.182 18.209,-35.48c5.083,-2.354 11.006,-2.097 15.872,0.684c38.704,63.461 103.285,86.27 168.384,108.17c20.266,6.821 40.948,12.468 61.614,18.004c5.172,0.655 10.416,0.598 15.575,-0.171c-2.59,-3.879 -5.126,-7.794 -7.779,-11.633c-40.92,-59.227 -88.655,-114.999 -120.89,-178.626c-32.999,-65.379 -57.32,-134.788 -72.352,-206.462c-15.258,-73.238 -11.53,-149.179 38.203,-214.077c10.474,-13.671 13.604,-15.094 22.108,2.315c24.749,53.954 52.391,106.532 82.809,157.509c50.449,75.154 111.433,142.679 181.072,200.501c55.886,49.225 111.673,99.027 171.387,143.336c97.501,72.342 197.483,141.425 297.756,209.924c59.852,40.885 122.36,77.87 183.463,116.942c23.046,14.737 37.549,21.889 66.353,-2.67c83.876,-71.518 173.725,-136.273 263.689,-200.222c20.011,-14.226 49.776,-16.494 75.633,-20.181c21.739,-3.1 33.082,11.889 35.345,32.887c2.25,20.901 -14.433,21.738 -28.162,27.947c-45.195,18.541 -89.157,39.952 -131.621,64.103c-55.101,34.018 -110.569,69.026 -151.32,121.548c-6.853,6.547 -12.51,14.237 -16.721,22.725c-4.566,11.275 -5.021,23.806 -1.289,35.386c8.675,7.308 20.35,10.02 31.354,7.29c36.505,-7.474 72.035,-19.101 105.894,-34.654c123.714,-66.631 245.539,-136.761 368.127,-205.489c12.379,-8.237 25.716,-14.938 39.721,-19.947c8.479,-2.27 19.228,3.954 28.958,6.36c-2.554,7.982 -6.314,15.523 -11.145,22.374c-42.331,43.447 -88.246,83.944 -115.082,139.972c-14.68,30.648 -24.812,64.126 -6.18,94.966c20.693,34.246 57.163,33.013 92.084,28.109c10.661,-1.327 20.989,-4.593 30.474,-9.637c40.803,-22.973 80.958,-47.085 121.496,-70.528c15.655,-9.053 18.073,-18.613 10.24,-36.498c-20.513,-46.74 -21.469,-99.805 -2.647,-147.253c24.319,-62.042 91.361,-97.033 156.169,-81.511c37.689,9.049 65.937,61.163 51.082,96.465c-21.547,51.202 -42.376,103.193 -89.759,137.602c-23.883,17.348 -15.727,35.832 1.332,49.69c24.028,19.512 51.07,39.7 83.973,33.156c57.308,-11.396 114.414,-24.899 170.367,-41.648c34.607,-10.956 67.944,-25.58 99.446,-43.612c21.305,-11.5 40.001,-27.287 54.911,-46.362c39.59,-50.336 87.377,-93.648 141.342,-128.123c18.966,-11.762 39.483,-20.815 60.954,-26.902c10.05,-3.04 20.947,-1.561 29.826,4.048c8.706,7.379 12.434,15.165 24.221,4.407c2.947,-2.69 15.242,0.03 18.673,4.106c3.088,5.971 2.838,13.136 -0.655,18.874c-16.697,19.317 -35.093,37.096 -54.963,53.125c-35.035,26.106 -72.566,48.826 -108.467,73.805c-30.732,21.381 -46.374,85.52 -30.117,119.223c11.386,23.603 54.747,37.611 92.181,25.138c51,-15.474 100.827,-34.58 149.099,-57.172c102.719,-51.61 203.425,-107.28 304.199,-162.658c11.726,-7.946 20.787,-19.248 25.997,-32.42c19.428,-43.397 106.83,-69.658 146.224,-42.622c12.938,7.507 20.49,21.792 19.415,36.709c-0.57,7.899 -3.52,15.442 -8.464,21.631c-38.132,41.457 -78.404,80.938 -117.658,121.362c-4.105,4.715 -7.928,9.663 -11.448,14.823c5.903,-0.812 11.709,-2.228 17.33,-4.217c66.541,-31.283 131.782,-65.667 199.659,-93.678c90.486,-37.344 182.552,-71.064 275.042,-103.17c16.892,-5.864 50.367,-3.23 56.462,7.109c13.491,22.884 -13.683,35.492 -29.484,48.751c-49.212,41.291 -96.626,83.679 -122.108,145.299c-1.914,5.303 -3.091,10.845 -3.496,16.467c-2.114,29.325 17.073,56.271 45.479,63.86c45.857,12.923 94.704,10.551 139.096,-6.75c75.256,-29.446 148.019,-65.186 222.546,-96.587c43.399,-18.283 69.145,-55.663 102.667,-85.061c116.379,-102.655 266.989,-158.254 422.152,-155.846c43.148,-1.598 85.793,9.86 122.33,32.869c67.336,44.653 82.246,107.177 44.621,173.076c-21.534,37.712 -46.71,73.343 -70.13,109.987c-1.422,2.779 -2.559,5.692 -3.404,8.695c4.001,0.639 8.08,0.582 12.061,-0.175c44.26,-15.25 87.651,-32.918 129.973,-52.927c108.179,-57.231 217.394,-113.404 320.487,-178.978c51.825,-35.822 113.675,-54.36 176.662,-52.948c90.683,3.038 103.233,73.356 77.827,132.309c-21.951,50.926 -62.515,86.093 -100.113,123.541c-21.491,18.952 -44.183,36.494 -67.938,52.513c-2.326,2.017 -4.518,4.185 -6.562,6.484c3.392,1.422 7.015,2.215 10.691,2.331c40.928,-7.099 84.279,-8.287 122.16,-23.264c84.062,-33.233 166.788,-70.633 247.41,-111.55c86.291,-43.798 170.369,-92.177 253.857,-141.208c66.997,-39.344 132.457,-81.463 197.184,-124.481c88.516,-58.838 176.594,-118.428 263.072,-180.198c45.712,-33.042 89.491,-68.679 131.115,-106.74c55.378,-47.759 107.807,-98.827 157.008,-152.928c39.336,-45.409 68.333,-99.758 102.132,-149.995c5.02,-7.466 11.236,-14.124 16.898,-21.157c6.051,6.926 16.177,13.178 17.455,20.896c6.18,37.403 11.338,75.104 14.04,112.897c-0.736,18.15 -2.68,36.229 -5.816,54.121c-4.928,47.289 -21.688,92.583 -48.723,131.692c-3.077,4.321 -5.908,8.813 -8.479,13.452c-47.474,98.193 -112.154,187.097 -190.968,262.495c-5.61,4.965 -10.685,10.508 -15.139,16.539c-3.346,6.108 -6.11,12.515 -8.264,19.135c7.538,2.466 16.726,9.025 22.356,6.759c53.052,-21.36 106.732,-41.801 157.544,-67.764c22.57,-11.534 38.395,-35.815 58.665,-52.642c6.87,-2.87 14.611,-2.848 21.464,0.052c5.138,19.931 14.733,41.942 10.486,60.479c-14.899,65.006 -49.741,119.369 -90.124,173.26c-40.715,50.561 -93.133,90.46 -152.715,116.239c-75.358,36.835 -156.645,61.541 -235.399,91.42c-1.989,0.756 -4.212,0.894 -6.212,1.628c-23.297,8.543 -46.58,17.119 -69.849,25.732c25.174,5.056 50.847,7.22 76.515,6.442c87.586,-12.389 174.65,-28.493 261.889,-43.33c5.172,-1.239 10.271,-2.75 15.28,-4.53c15.06,-4.259 25.387,-6.892 16.879,16.473c-27.084,70.755 -78.069,129.863 -144.083,167.037c-143.318,87.806 -298.022,84.06 -453.95,49.302c-66.166,-14.745 -129.514,-42.182 -194.018,-64.223c-6.162,-1.92 -11.665,-5.533 -15.875,-10.424c-8.687,-11.46 -15.877,-24.055 -23.668,-36.197c12.174,2.16 24.462,3.811 36.502,6.553c99.006,22.546 197.318,48.867 297.135,66.876c82.439,17.03 168.051,10.162 246.718,-19.796c39.304,-18.45 76.981,-40.18 112.63,-64.964c5.928,-3.672 7.515,-14.339 11.114,-21.771c-7.465,-1.791 -15.135,-2.574 -22.807,-2.329c-100.118,18.871 -202.734,20.451 -303.386,4.684c-26.182,-4.548 -51.87,-12.038 -77.662,-18.65c-3.214,-0.82 -5.678,-4.549 -8.493,-6.928c2.601,-3.214 5.654,-6.03 9.063,-8.364c44.145,-21.313 87.274,-45.363 132.932,-62.766c90.713,-34.575 183.676,-63.289 274.106,-98.534c71.057,-29.454 133.922,-75.714 183.176,-134.798c5.129,-5.507 9.214,-11.908 12.042,-18.883c4.941,-13.687 8.282,-27.948 12.284,-41.973c-9.739,5.763 -19.964,10.673 -30.558,14.666c-90.381,25.832 -180.652,52.148 -271.554,76.036c-74.357,19.539 -149.511,36.041 -224.382,53.604c-7.099,1.121 -14.274,1.684 -21.461,1.686c4.787,-4.956 10.04,-9.442 15.686,-13.392c68.389,-39.083 135.812,-80.077 205.762,-116.161c107.549,-55.479 186.503,-139.972 249.486,-240.223c37.031,-58.945 68.117,-121.648 101.254,-182.998c4.299,-8.639 6.768,-18.074 7.257,-27.712c-0.309,-8.407 -1.602,-16.747 -3.851,-24.853c-5.584,4.829 -11.351,9.46 -16.726,14.518c-50.387,47.405 -98.99,96.895 -151.489,141.834c-63.96,54.755 -129.257,108.366 -197.48,157.617c-84.785,61.211 -172.324,118.74 -260.209,175.483c-84.305,54.429 -170.618,105.747 -255.96,158.586c-46.27,28.645 -92.806,56.904 -138.424,86.563c-113.927,74.624 -241.589,125.804 -375.512,150.545c-87.371,14.598 -175.653,23.052 -264.205,25.295c-55.336,4.166 -109.972,-14.98 -150.606,-52.779c-18.663,-22.361 -50.339,-29.316 -76.656,-16.839c-57.495,25.889 -116.931,47.232 -177.758,63.836c-49.83,12.261 -78.391,49.168 -115.453,76.393c-72.102,52.958 -142.086,108.912 -215.562,159.849c-80.63,55.895 -161.943,111.499 -247.036,160.091c-123.91,70.757 -250.353,137.341 -377.876,201.404c-77.394,38.353 -156.74,72.635 -237.709,102.713c-98.67,39.226 -203.969,59.13 -310.151,58.627c-66.363,-1.337 -130.034,-15.016 -155.903,-88.172c-7.773,-20.384 -8.843,-42.723 -3.055,-63.753c31.863,-88.077 98.395,-147.415 175.51,-195.437c117.7,-71.551 244.157,-127.586 376.226,-166.705c117.265,-36.209 235.514,-69.416 354.048,-101.261c120.593,-32.397 242.077,-61.486 363.156,-92.075c64.255,-16.231 127.812,-36.468 192.929,-47.659c50.516,-9.04 96.096,-36.05 128.288,-76.016c40.378,-44.939 76.208,-93.765 106.97,-145.761c17.243,-30.757 20.3,-71.659 21.92,-108.343c1.558,-35.197 -31.998,-48.119 -58.653,-54.378c-61.8,-15.103 -126.679,-11.908 -186.698,9.188c-21.898,7.818 -37.641,31.678 -57.703,46.117c-28.07,21.359 -57.615,40.709 -88.408,57.91c-19.908,6.993 -30.709,28.948 -24.1,48.986c6.2,22.245 20.744,43.254 45.924,42.755c35.138,0.594 70.183,-3.737 104.119,-12.863c58.889,-18.456 115.594,-43.846 173.464,-65.665c8.45,-2.044 17.123,-3.027 25.814,-2.924c-4.76,6.65 -10.479,12.566 -16.961,17.552c-94.307,52.008 -186.347,109.684 -296.899,122.329c-55.891,6.391 -109.183,2.99 -148.516,-44.361c-10.34,-12.451 -17.198,-8.963 -29.343,-3.256c-86.8,40.795 -172.128,86.049 -262.061,118.367c-60.982,19.64 -124.416,30.63 -188.449,32.645c-76.779,4.664 -114.515,-39.411 -108.25,-116.535c2.679,-30.909 8.297,-61.492 16.784,-91.333c8.091,-28.918 -7.269,-22.56 -21.327,-16.314c-39.022,17.338 -77.714,35.412 -116.073,54.228c-118.776,58.41 -237.424,117.066 -355.95,175.978c-7.624,3.767 -16.15,10.433 -23.304,9.361c-12.153,-1.614 -23.615,-6.612 -33.068,-14.424c-4.204,-3.805 -2.598,-18.313 1.066,-25.635c7.6,-15.354 17.005,-29.751 28.016,-42.875c28.035,-33.015 57.389,-64.91 86.089,-97.365c2.532,-3.312 4.808,-6.816 6.813,-10.477c-4.723,0.772 -9.33,2.117 -13.722,4.001c-52.555,30.55 -103.098,65.304 -157.849,91.153c-70.962,34.238 -144.114,63.742 -218.975,88.319c-61.31,20.713 -129.098,9.18 -180.107,-30.636c-19.903,-15.284 -34.491,-36.457 -41.678,-60.503c-6.282,-25.085 -10.488,-24.162 -32.004,-16.285c-64.984,23.781 -130.593,46.493 -197.265,64.877c-68.251,18.822 -129.67,-1.886 -180.667,-48.916c-19.839,-18.299 -33.874,-13.655 -52.414,-1.601c-42.301,30.62 -86.764,58.141 -133.036,82.344c-45.029,18.92 -92.053,32.693 -140.178,41.047c-33.847,6.948 -59.851,-11.09 -82.086,-38.816c-33.473,-41.744 -36.404,-86.749 -25.628,-135.603c1.239,-5.606 1.616,-11.4 2.394,-17.112c-5.58,2.77 -11.377,5.178 -16.716,8.352c-102.188,60.727 -207.354,114.809 -323.097,145.391c-7.24,1.913 -14.532,3.774 -21.914,4.967c-66.997,10.814 -88.869,-9.304 -75.102,-74.359c7.067,-20.326 -2.778,-42.943 -22.467,-51.625c-113.826,-71.616 -228.594,-141.958 -339.598,-217.78c-80.149,-54.726 -157.225,-113.826 -230.874,-177.028c-79.738,-68.486 -154.949,-142.462 -229.34,-216.839c-26.649,-30.402 -50.959,-62.771 -72.733,-96.833c-3.575,-6.545 -7.638,-12.812 -12.151,-18.748c-5.615,-4.415 -11.757,-8.127 -18.282,-11.04c-0.386,6.297 -1.317,12.614 -1.071,18.884c5.198,107.846 40.509,212.107 101.909,300.921c16.952,25.575 35.94,49.806 52.9,75.382c34.629,52.224 92.025,75.007 140.567,108.95c39.253,27.441 81.51,50.56 122.04,76.219c5.52,3.497 8.742,10.626 13.025,16.074c-7.195,1.061 -14.498,1.172 -21.724,0.32c-53.929,-13.746 -107.999,-27.091 -161.423,-42.623c-89.332,-25.972 -178.262,-53.321 -267.239,-80.477c-14.734,-4.496 -28.868,-10.96 -43.281,-16.513c3.313,16.619 7.604,33.035 12.843,49.153c22.834,57.206 66.861,103.464 122.867,129.093c70.721,34.321 147.169,56.623 219.887,87.109c56.947,23.875 112.036,52.208 167.746,78.981c4.087,1.967 6.528,7.359 9.733,11.153c-5.947,3.989 -12.42,7.122 -19.233,9.311c-87.595,14.864 -175.019,32.768 -264.912,21.234Zm2695.93,732.976c17.088,0.704 34.207,-0.142 51.142,-2.521c60.906,-10.693 121.045,-25.355 180.034,-43.897c87.986,-31.918 174.307,-68.245 258.639,-108.851c65.681,-32.832 129.519,-69.228 191.228,-109.022c90.167,-56.074 179.194,-114.065 267.407,-173.178c49.308,-33.045 97.086,-68.639 143.463,-105.701c31.381,-25.078 59.345,-54.474 88.261,-82.536c4.4,-5.798 7.923,-12.219 10.446,-19.046c-7.856,-0.607 -15.755,-0.41 -23.57,0.594c-117.598,27.132 -235.322,53.779 -352.579,82.329c-118.344,28.815 -237.629,54.979 -353.882,90.801c-122.259,37.67 -242.648,82.324 -361.534,129.738c-92.467,36.875 -176.857,88.634 -239.53,169.826c-29.443,36.936 -26.267,90.742 7.309,123.961c36.617,33.7 82.2,43.491 133.166,47.503Zm1804.63,-781.916c68.542,-0.042 134.827,-24.745 186.677,-69.574c40.636,-33.134 83.382,-69.099 89.66,-126.887c0.273,-16.148 -5.33,-31.856 -15.764,-44.185c-12.936,-15.588 -28.245,-4.571 -42.386,4.68c-50.758,33.199 -101.847,65.894 -153.265,98.078c-45.074,28.324 -90.344,56.36 -136.103,83.562c-18.058,10.735 -18.027,20.874 -0.158,28.7c23.093,10.113 47.499,17.221 71.339,25.626Zm-2789.82,-257.126c1.644,-17.939 -13.968,-34.148 -47.887,-31.792c-39.696,2.758 -58.94,15.752 -67.683,55.567c-4.977,25.99 -5.847,52.603 -2.576,78.861c4.186,40.791 11.066,44.483 40.327,19.022c32.988,-28.7 72.725,-54.502 77.819,-121.658Z" style="fill:#fff;fill-rule:nonzero;"/><path d="M2742.2,534.934c13.883,2.5 24.357,4.372 34.82,6.279c23.363,2.675 40.991,23.064 40.261,46.567c3.007,24.651 -14.059,47.638 -38.526,51.888c-31.237,6.084 -63.072,8.546 -94.876,7.338c-1.84,0.077 -3.68,0.053 -5.517,-0.079c-24.945,-1.798 -44.606,-22.624 -44.972,-47.629c-1.095,-28.931 19.779,-54.416 48.356,-59.039c20.881,-3.659 42.37,-3.847 60.454,-5.325Z" style="fill:#fff;fill-rule:nonzero;"/></g></svg>